<svg xmlns="http://www.w3.org/2000/svg" width="900" height="1400" viewBox="0 0 900 1400" fill="none">
  <defs>
    <linearGradient id="g2" x1="0" y1="0" x2="900" y2="1400" gradientUnits="userSpaceOnUse">
      <stop stop-color="#C6CFCC"/>
      <stop offset="1" stop-color="#B9C3C0"/>
    </linearGradient>
    <linearGradient id="phone2" x1="0" y1="0" x2="1" y2="1">
      <stop stop-color="#F5FAF7"/>
      <stop offset="1" stop-color="#EEF5F1"/>
    </linearGradient>
  </defs>
  <rect width="900" height="1400" fill="url(#g2)"/>
  <rect x="180" y="66" width="540" height="1268" rx="34" fill="url(#phone2)" stroke="#CBD7D2"/>

  <rect x="220" y="188" width="460" height="64" rx="22" fill="#E6F0EC" stroke="#C2D7CF"/>
  <rect x="230" y="196" width="220" height="48" rx="16" fill="#CBE4D8"/>
  <text x="340" y="227" fill="#2B5848" font-family="Arial" font-size="31" text-anchor="middle">Local</text>
  <text x="560" y="227" fill="#2B5848" font-family="Arial" font-size="31" text-anchor="middle">Cloud</text>

  <text x="220" y="300" fill="#638275" font-family="Arial" font-size="32">1 playlists | 5 tracks</text>

  <rect x="230" y="336" width="192" height="178" rx="24" fill="#CBE4D8" stroke="#89B39F" stroke-width="2"/>
  <text x="268" y="424" fill="#2A5848" font-family="Arial" font-size="44">♬</text>
  <text x="268" y="468" fill="#2A5848" font-family="Arial" font-size="34" font-weight="700">All songs</text>

  <rect x="220" y="556" width="460" height="66" rx="22" fill="#EAF3EE" stroke="#C8D8D1"/>
  <text x="280" y="598" fill="#5E7A6E" font-family="Arial" font-size="32">Search track</text>

  <g>
    <rect x="220" y="642" width="460" height="100" rx="20" fill="#F8FAF9" stroke="#CEDBD6"/>
    <rect x="240" y="662" width="58" height="58" rx="14" fill="#8BC2A9"/>
    <text x="320" y="706" fill="#2F4940" font-family="Arial" font-size="34">17 SEVENTEEN - Сердце.mp3</text>
  </g>
  <g>
    <rect x="220" y="758" width="460" height="100" rx="20" fill="#F8FAF9" stroke="#CEDBD6"/>
    <rect x="240" y="778" width="58" height="58" rx="14" fill="#8BC2A9"/>
    <text x="320" y="822" fill="#2F4940" font-family="Arial" font-size="34">FORTUNA 812 - Vivienne.mp3</text>
  </g>
  <g>
    <rect x="220" y="874" width="460" height="100" rx="20" fill="#F8FAF9" stroke="#CEDBD6"/>
    <rect x="240" y="894" width="58" height="58" rx="14" fill="#8BC2A9"/>
    <text x="320" y="938" fill="#2F4940" font-family="Arial" font-size="34">xxxmanera - Never Broke Again.mp3</text>
  </g>

  <rect x="210" y="1080" width="480" height="112" rx="28" fill="#F7FBF9" stroke="#CAD8D3"/>
  <rect x="444" y="1090" width="236" height="92" rx="22" fill="#7CB899"/>
  <text x="330" y="1148" fill="#63766D" font-family="Arial" font-size="32" text-anchor="middle">Player</text>
  <text x="562" y="1148" fill="#fff" font-family="Arial" font-size="32" text-anchor="middle">Storage</text>
</svg>
