<svg xmlns="http://www.w3.org/2000/svg" width="900" height="1400" viewBox="0 0 900 1400" fill="none">
  <defs>
    <linearGradient id="g" x1="0" y1="0" x2="900" y2="1400" gradientUnits="userSpaceOnUse">
      <stop stop-color="#A983A6"/>
      <stop offset="1" stop-color="#D3C9D0"/>
    </linearGradient>
    <linearGradient id="phone" x1="0" y1="0" x2="1" y2="1">
      <stop stop-color="#FAF6F9"/>
      <stop offset="1" stop-color="#F2EDF3"/>
    </linearGradient>
    <linearGradient id="cover" x1="0" y1="0" x2="1" y2="1">
      <stop stop-color="#D8A4CC"/>
      <stop offset="1" stop-color="#E6B3DA"/>
    </linearGradient>
  </defs>
  <rect width="900" height="1400" fill="url(#g)"/>
  <rect x="180" y="66" width="540" height="1268" rx="34" fill="url(#phone)" stroke="#D3C6CE"/>
  <text x="450" y="170" fill="#2F2430" font-family="Arial" font-size="44" font-weight="700" text-anchor="middle">CloudTune</text>

  <rect x="252" y="220" width="396" height="396" rx="44" fill="url(#cover)"/>
  <text x="450" y="450" fill="#fff" font-family="Arial" font-size="170" text-anchor="middle">♪</text>

  <text x="450" y="700" fill="#3D2435" font-family="Arial" font-size="62" font-weight="700" text-anchor="middle">Thunderstruck-kissvk.com</text>
  <text x="450" y="748" fill="#6E5E67" font-family="Arial" font-size="34" text-anchor="middle">AC-DC-Thunderstruck-kissvk.com.mp3</text>

  <line x1="250" y1="840" x2="650" y2="840" stroke="#E4D8DF" stroke-width="8" stroke-linecap="round"/>
  <line x1="250" y1="840" x2="360" y2="840" stroke="#D694C3" stroke-width="8" stroke-linecap="round"/>
  <circle cx="360" cy="840" r="16" fill="#D694C3"/>

  <circle cx="450" cy="984" r="56" fill="#D88CB8"/>
  <rect x="434" y="958" width="12" height="52" rx="4" fill="#fff"/>
  <rect x="454" y="958" width="12" height="52" rx="4" fill="#fff"/>

  <rect x="210" y="1080" width="480" height="110" rx="28" fill="#F7F4F5" stroke="#DACED4"/>
  <rect x="220" y="1090" width="220" height="90" rx="22" fill="#D88CB8"/>
  <text x="330" y="1148" fill="#fff" font-family="Arial" font-size="32" text-anchor="middle">Player</text>
  <text x="535" y="1148" fill="#5E5561" font-family="Arial" font-size="32" text-anchor="middle">Storage</text>
</svg>
